<?xml version="1.0" encoding="UTF-8"?>
<svg xmlns="http://www.w3.org/2000/svg" width="175.6" height="30" viewBox="0 0 175.6 28.401">
  <g id="svgGroup" stroke-linecap="round" fill-rule="evenodd" font-size="9pt" stroke="#000" stroke-width="0.25mm" fill="#000" style="stroke:#000;stroke-width:0.25mm;fill:#000">
    <path d="M 0.32 19 L 6.24 19 A 7.39 7.39 0 0 0 6.18 19.224 Q 6.13 19.423 6.08 19.66 Q 6 20.04 6 20.36 A 2.802 2.802 0 0 0 6.15 21.293 A 2.46 2.46 0 0 0 6.64 22.12 A 3.216 3.216 0 0 0 7.449 22.767 Q 7.899 23.026 8.48 23.2 Q 9.68 23.56 11.32 23.56 A 17.133 17.133 0 0 0 12.587 23.516 Q 13.181 23.472 13.701 23.384 A 9.445 9.445 0 0 0 14.04 23.32 A 8.801 8.801 0 0 0 14.97 23.077 Q 15.436 22.926 15.824 22.733 A 4.972 4.972 0 0 0 16 22.64 A 3.921 3.921 0 0 0 16.664 22.186 A 2.969 2.969 0 0 0 17.22 21.56 A 2.568 2.568 0 0 0 17.63 20.338 A 3.185 3.185 0 0 0 17.64 20.08 Q 17.64 19.24 17.08 18.64 A 4.181 4.181 0 0 0 16.383 18.048 Q 16.042 17.814 15.627 17.613 A 6.899 6.899 0 0 0 15.6 17.6 A 12.398 12.398 0 0 0 14.489 17.137 A 16.007 16.007 0 0 0 13.52 16.82 A 61.026 61.026 0 0 0 11.713 16.322 A 69.519 69.519 0 0 0 11.08 16.16 Q 9.6 15.72 8.12 15.18 A 12.693 12.693 0 0 1 5.808 14.07 A 11.567 11.567 0 0 1 5.42 13.82 Q 4.2 13 3.48 11.78 A 5.006 5.006 0 0 1 2.898 10.237 Q 2.769 9.612 2.761 8.896 A 8.496 8.496 0 0 1 2.76 8.8 A 9.108 9.108 0 0 1 2.957 6.861 A 6.899 6.899 0 0 1 3.72 4.86 Q 4.68 3.2 6.32 2.12 A 11.359 11.359 0 0 1 8.936 0.857 A 13.721 13.721 0 0 1 10.1 0.52 Q 12.24 0 14.52 0 A 24.681 24.681 0 0 1 17.009 0.12 A 19.401 19.401 0 0 1 18.78 0.38 A 13.352 13.352 0 0 1 20.653 0.884 A 10.29 10.29 0 0 1 22.18 1.56 A 6.575 6.575 0 0 1 23.605 2.598 A 5.595 5.595 0 0 1 24.44 3.62 Q 25.24 4.88 25.24 6.6 Q 25.24 6.96 25.2 7.4 A 9.581 9.581 0 0 1 25.167 7.703 Q 25.125 8.041 25.051 8.495 A 31.511 31.511 0 0 1 25.04 8.56 L 19.2 8.56 A 7.411 7.411 0 0 0 19.254 8.373 Q 19.325 8.11 19.34 7.96 A 5.554 5.554 0 0 0 19.351 7.843 Q 19.359 7.731 19.36 7.651 A 1.51 1.51 0 0 0 19.36 7.64 A 2.356 2.356 0 0 0 18.537 5.811 A 3.353 3.353 0 0 0 18.16 5.52 A 4.168 4.168 0 0 0 17.033 5.006 Q 16.075 4.72 14.76 4.72 Q 13.196 4.72 11.995 5.02 A 7.746 7.746 0 0 0 11.7 5.1 A 6.609 6.609 0 0 0 10.843 5.412 Q 10.409 5.607 10.071 5.851 A 3.292 3.292 0 0 0 9.7 6.16 A 2.274 2.274 0 0 0 9.134 7.014 A 2.272 2.272 0 0 0 9 7.8 A 1.937 1.937 0 0 0 9.127 8.508 A 1.791 1.791 0 0 0 9.4 8.98 Q 9.769 9.441 10.426 9.783 A 4.764 4.764 0 0 0 10.54 9.84 A 11.412 11.412 0 0 0 11.313 10.18 Q 11.755 10.355 12.26 10.52 Q 13.24 10.84 14.36 11.12 Q 15.92 11.56 17.6 12.1 Q 19.28 12.64 20.72 13.5 Q 22.16 14.36 23.04 15.66 A 5.027 5.027 0 0 1 23.811 17.59 A 6.883 6.883 0 0 1 23.92 18.84 A 10.734 10.734 0 0 1 23.728 20.921 A 7.734 7.734 0 0 1 22.9 23.22 Q 21.88 25.04 20.14 26.18 Q 18.4 27.32 16.24 27.86 Q 14.08 28.4 11.76 28.4 A 27.098 27.098 0 0 1 8.802 28.245 A 22.299 22.299 0 0 1 7.14 28 Q 5 27.6 3.4 26.76 A 7.135 7.135 0 0 1 1.822 25.651 A 6.139 6.139 0 0 1 0.9 24.56 Q 0 23.2 0 21.32 Q 0 20.76 0.1 20.12 A 16.059 16.059 0 0 1 0.191 19.591 Q 0.237 19.35 0.287 19.138 A 8.961 8.961 0 0 1 0.32 19 Z" id="0"></path>
    <path d="M 30.88 27.92 L 24.6 27.92 L 39.92 0.48 L 47.28 0.48 L 53 27.92 L 46.88 27.92 L 45.84 22.52 L 33.8 22.52 L 30.88 27.92 Z M 39.88 11.16 L 36.36 17.72 L 44.92 17.72 L 43.68 11.08 L 43.44 9.64 Q 43.32 8.92 43.18 8.18 Q 43.04 7.44 42.96 6.82 Q 42.88 6.2 42.8 5.68 L 42.6 5.68 A 214.838 214.838 0 0 0 42.203 6.479 Q 41.995 6.898 41.766 7.366 A 357.69 357.69 0 0 0 41.7 7.5 Q 41.2 8.52 40.72 9.5 Q 40.39 10.174 40.117 10.706 A 41.677 41.677 0 0 1 39.88 11.16 Z" id="1"></path>
    <path d="M 61.96 27.92 L 56.28 27.92 L 61.16 0.48 L 66.64 0.48 L 74.64 15.24 A 11.114 11.114 0 0 1 74.916 15.699 Q 75.056 15.945 75.201 16.223 A 18.181 18.181 0 0 1 75.22 16.26 L 75.82 17.42 Q 76.12 18 76.36 18.48 L 76.6 18.44 Q 76.68 17.76 76.8 16.96 Q 76.92 16.16 77 15.64 L 79.6 0.48 L 85.28 0.48 L 80.44 27.92 L 74.96 27.92 L 67.08 13.4 Q 66.72 12.76 66.18 11.7 Q 65.809 10.972 65.504 10.385 A 110.926 110.926 0 0 0 65.24 9.88 L 65.04 9.88 Q 64.985 10.375 64.892 10.993 A 46.706 46.706 0 0 1 64.8 11.58 Q 64.64 12.56 64.52 13.16 L 61.96 27.92 Z" id="2"></path>
    <path d="M 100.48 27.92 L 94.48 27.92 L 96.44 16.88 L 88.68 0.48 L 94.96 0.48 L 100.12 11.6 L 100.36 11.6 L 109.24 0.48 L 115.88 0.48 L 102.4 16.88 L 100.48 27.92 Z" id="3"></path>
    <path d="M 124.734 28.202 A 21.89 21.89 0 0 0 127.76 28.4 A 21.062 21.062 0 0 0 131.301 28.116 A 15.501 15.501 0 0 0 135.62 26.74 Q 138.96 25.08 141.04 21.92 A 16.674 16.674 0 0 0 142.813 18.321 A 21.759 21.759 0 0 0 143.8 14.32 Q 143.96 13.44 144.04 12.56 Q 144.12 11.68 144.12 10.8 A 16.799 16.799 0 0 0 144.115 10.396 Q 144.035 7.064 142.62 4.8 A 8.821 8.821 0 0 0 141.123 2.989 A 9.734 9.734 0 0 0 138.32 1.2 A 12.441 12.441 0 0 0 137.628 0.928 Q 136.24 0.429 134.6 0.198 A 21.554 21.554 0 0 0 131.6 0 A 21.343 21.343 0 0 0 127.847 0.314 A 15.37 15.37 0 0 0 123.72 1.64 Q 120.4 3.28 118.36 6.42 Q 116.32 9.56 115.56 13.96 Q 115.4 14.84 115.34 15.76 Q 115.28 16.68 115.28 17.6 A 17.18 17.18 0 0 0 115.286 18.07 Q 115.325 19.488 115.601 20.712 A 9.555 9.555 0 0 0 116.74 23.6 A 8.546 8.546 0 0 0 118.338 25.529 A 9.612 9.612 0 0 0 121 27.2 A 12.378 12.378 0 0 0 121.747 27.492 Q 123.116 27.976 124.734 28.202 Z M 127.84 23.48 Q 129.88 23.48 131.5 22.9 Q 133.12 22.32 134.34 21.2 A 8.618 8.618 0 0 0 136.032 19.037 A 10.19 10.19 0 0 0 136.34 18.44 A 13.138 13.138 0 0 0 137.147 16.233 A 16.566 16.566 0 0 0 137.48 14.72 A 89.001 89.001 0 0 1 137.567 14.178 Q 137.602 13.964 137.636 13.77 A 49.104 49.104 0 0 1 137.7 13.4 A 16.154 16.154 0 0 0 137.767 13 Q 137.797 12.802 137.818 12.625 A 8.626 8.626 0 0 0 137.84 12.42 A 29.008 29.008 0 0 0 137.871 12.072 Q 137.884 11.913 137.894 11.772 A 15.993 15.993 0 0 0 137.9 11.68 Q 137.92 11.36 137.92 11.04 A 8.635 8.635 0 0 0 137.782 9.46 A 6.302 6.302 0 0 0 137.2 7.72 Q 136.48 6.32 135.02 5.6 Q 133.56 4.88 131.4 4.88 Q 129.4 4.88 127.78 5.46 Q 126.16 6.04 124.96 7.16 A 8.714 8.714 0 0 0 123.348 9.216 A 10.399 10.399 0 0 0 122.98 9.92 A 13.138 13.138 0 0 0 122.173 12.127 A 16.566 16.566 0 0 0 121.84 13.64 A 18.123 18.123 0 0 0 121.734 14.182 Q 121.658 14.61 121.62 14.96 A 110.377 110.377 0 0 0 121.578 15.361 Q 121.561 15.519 121.547 15.664 A 62.464 62.464 0 0 0 121.52 15.94 A 29.008 29.008 0 0 0 121.489 16.289 Q 121.476 16.447 121.466 16.588 A 15.993 15.993 0 0 0 121.46 16.68 Q 121.44 17 121.44 17.32 A 8.573 8.573 0 0 0 121.578 18.897 A 6.146 6.146 0 0 0 122.16 20.62 Q 122.88 22 124.32 22.74 Q 125.625 23.411 127.456 23.474 A 11.199 11.199 0 0 0 127.84 23.48 Z" id="4"></path>
    <path d="M 175.44 9.96 L 169.4 9.96 Q 169.44 9.72 169.44 9.52 L 169.44 9.12 A 4.16 4.16 0 0 0 169.337 8.174 A 3.286 3.286 0 0 0 169 7.3 A 3.952 3.952 0 0 0 167.829 6.015 A 4.574 4.574 0 0 0 167.78 5.98 Q 167 5.44 165.94 5.16 A 8.472 8.472 0 0 0 164.407 4.908 A 10.266 10.266 0 0 0 163.64 4.88 A 13.328 13.328 0 0 0 161.543 5.038 A 10.449 10.449 0 0 0 159.88 5.44 A 8.978 8.978 0 0 0 157.735 6.475 A 8.064 8.064 0 0 0 156.96 7.06 A 9.008 9.008 0 0 0 155.069 9.329 A 10.372 10.372 0 0 0 154.88 9.66 Q 154.04 11.2 153.68 13.2 A 144.572 144.572 0 0 1 153.579 13.897 Q 153.532 14.214 153.489 14.496 A 80.561 80.561 0 0 1 153.46 14.68 Q 153.36 15.32 153.3 15.8 A 54.008 54.008 0 0 0 153.248 16.228 Q 153.225 16.43 153.205 16.609 A 31.681 31.681 0 0 0 153.2 16.66 Q 153.16 17.04 153.16 17.44 A 9.87 9.87 0 0 0 153.258 18.875 Q 153.371 19.642 153.613 20.283 A 5.321 5.321 0 0 0 153.86 20.84 Q 154.56 22.2 155.96 22.86 Q 157.36 23.52 159.44 23.52 A 12.508 12.508 0 0 0 162.099 23.247 A 10.665 10.665 0 0 0 163.56 22.82 A 8.92 8.92 0 0 0 165.419 21.881 A 7.379 7.379 0 0 0 166.66 20.84 A 5.339 5.339 0 0 0 167.72 19.263 A 4.879 4.879 0 0 0 168.08 17.92 L 168.12 17.64 L 159.96 17.64 L 160.8 13.08 L 174.88 13.08 L 172.28 27.92 L 168.4 27.92 L 168.32 24.88 A 15.744 15.744 0 0 1 165.86 26.613 A 14.398 14.398 0 0 1 165.48 26.82 Q 164 27.6 162.32 28 A 14.407 14.407 0 0 1 160.316 28.324 A 18.549 18.549 0 0 1 158.6 28.4 A 18.696 18.696 0 0 1 155.245 28.118 Q 153.373 27.776 151.894 27.02 A 9.331 9.331 0 0 1 150.04 25.78 Q 147.343 23.456 147.039 18.912 A 17.841 17.841 0 0 1 147 17.72 A 22.871 22.871 0 0 1 147.131 15.238 A 21.071 21.071 0 0 1 147.14 15.16 Q 147.28 13.92 147.52 12.8 Q 148.4 8.72 150.56 5.86 Q 152.72 3 156.02 1.5 A 16.61 16.61 0 0 1 160.739 0.177 A 21.161 21.161 0 0 1 163.52 0 A 22.531 22.531 0 0 1 166.69 0.216 A 19.136 19.136 0 0 1 168.24 0.5 Q 170.44 1 172.1 2.02 A 7.903 7.903 0 0 1 173.923 3.541 A 7.095 7.095 0 0 1 174.68 4.58 A 6.484 6.484 0 0 1 175.535 7.112 A 8.246 8.246 0 0 1 175.6 8.16 Q 175.6 8.6 175.56 9.04 A 12.018 12.018 0 0 1 175.479 9.715 A 13.884 13.884 0 0 1 175.44 9.96 Z" id="5"></path>
  </g>
</svg>
